<?xml version="1.0" encoding="UTF-8"?>
<svg id="uuid-b604e05e-3111-4c77-9c55-e3cf109cb40f" data-name="レイヤー 2" xmlns="http://www.w3.org/2000/svg" viewBox="0 0 283.762 353.403">
  <g id="uuid-3cabc3af-c729-4734-957e-0219f569b3c2" data-name="レイヤー 33">
    <g>
      <g id="uuid-777cd439-ea43-4ea1-b0b6-e32ea36c7079" data-name=" レイヤー 19">
        <g>
          <path d="m273.366,177.646l-23.451-.974c-.059-.012-.106-.065-.082-.123,1.637-7.661,2.493-15.615,2.493-23.762,0-44.128-25.153-82.385-61.908-101.191-.029-.012-.035-.029-.047-.059C179.044,21.574,147.316,0,109.951,0S39.28,22.671,28.739,53.807c-11.937,4.006-22.959,8.224-28.044,11.573-.856.563-.909,1.496-.223,2.258,3.478,3.871,13.726,10.118,25.153,16.401,1.085,8.922,3.901,17.38,8.153,25.1.012.018.012.059,0,.088-5.573,13.415-8.664,28.126-8.664,43.559,0,62.735,50.862,113.597,113.609,113.597,26.56,0,51.003-9.115,70.337-24.396.047-.035.111-.029.141.018l16.653,23.34c2.675,3.742,6.335,5.414,10.171,5.414,4.716,0,9.673-2.534,13.315-6.857,21.111-25.041,29.704-44.099,33.91-73.997,1.437-10.154.358-11.837-9.89-12.26h.006Zm-6.147,16.94c-4.083,23.123-11.626,38.304-28.707,58.722-.012.012-.018.029-.035.035-.047.065-.111.135-.182.188-.592.493-1.76.54-2.399-.135l-.246-.352s-.018-.018-.018-.029l-14.178-19.873-7.772-10.893c-.792-1.114-2.352-1.332-3.431-.481l-10.482,8.294c-15.321,12.13-33.382,19.257-52.657,20.853-58.799,4.88-108.459-43.319-106.81-102.294.323-11.691,1.349-23.756,7.444-33.652,1.161-1.889,5.778-6.716,5.778-6.716,0,0-5.121-4.564-6.499-6.376-5.649-7.45-6.798-16.981-6.798-26.115,0-33.447,31.282-60.658,69.727-60.658,15.181,0,29.611,4.182,41.741,12.089,11.579,7.555,21.375,17.416,24.548,29.704.399,1.56.927,6.364.927,6.364,0,0,4.798,1.161,6.329,1.766,16.653,6.499,29.347,20.46,38.832,35.646,9.737,15.597,14.887,33.605,14.887,52.1,0,6.992-.739,13.949-2.182,20.706l-3.044,14.142c-.375,1.766.927,3.455,2.739,3.531l14.442.604,16.324.68c1.103.035,1.924,1.05,1.73,2.135l-.006.012Z" stroke-width="0"/>
          <ellipse cx="64.808" cy="65.098" rx="11.344" ry="10.013" transform="translate(-8.772 120.088) rotate(-81.9)" stroke-width="0"/>
        </g>
      </g>
      <g>
        <path d="m42.095,353.403c-5.701,0-11.218-1.666-15.956-4.816-2.291-1.523-3.658-4.098-3.658-6.887v-8.4h-.933c-4.476,0-8.202-3.638-8.305-8.108-.005-.215-.007-.432-.007-.647,0-15.913,12.946-28.859,28.859-28.859s28.859,12.946,28.859,28.859c0,.216-.003.433-.008.647-.103,4.471-3.829,8.108-8.305,8.108h-.933v8.4c0,2.789-1.367,5.363-3.658,6.887-4.737,3.15-10.255,4.816-15.956,4.816Zm-10.614-12.078c3.175,2.016,6.835,3.078,10.614,3.078s7.439-1.062,10.614-3.078v-8.724c0-4.577,3.724-8.302,8.301-8.302h.943c-.131-10.839-8.989-19.615-19.858-19.615s-19.727,8.776-19.858,19.615h.943c4.577,0,8.301,3.725,8.301,8.302v8.724Z" stroke-width="0"/>
        <path d="m101.23,352.066c-1.106,0-2.225-.223-3.292-.679-10.647-4.551-17.526-14.97-17.526-26.544,0-12.808,8.231-23.907,20.481-27.619l2.58-.782,1.906,1.907c2.146,2.146,5.637,2.145,7.782,0l1.906-1.907,2.58.782c8.177,2.478,14.797,8.411,18.162,16.278h0c1.348,3.151.667,6.739-1.736,9.14-.603.604-.924,1.378-.924,2.201s.321,1.598.903,2.18c2.418,2.419,3.102,6.028,1.742,9.195-2.934,6.834-8.314,12.215-15.15,15.151-3.168,1.36-6.778.677-9.196-1.742-1.202-1.201-3.158-1.202-4.36,0-1.595,1.596-3.706,2.438-5.862,2.439Zm8.042-12.336c2.946,0,5.893,1.067,8.201,3.204,4.403-1.998,7.892-5.487,9.888-9.89-2.073-2.238-3.209-5.132-3.209-8.201s1.136-5.962,3.209-8.201c-2.052-4.522-5.682-8.074-10.186-10.022-4.785,3.11-11.018,3.111-15.804.003-7.141,3.112-11.959,10.309-11.959,18.221,0,7.817,4.562,14.87,11.659,18.09,2.308-2.136,5.255-3.203,8.201-3.203Zm18.263-22.692s0,.003.002.004c0,0,0-.003-.002-.004Z" stroke-width="0"/>
        <path d="m177.526,353.051c-2.19,0-4.29-.864-5.865-2.438l-5.751-5.751c-1.519,1.286-3.417,1.951-5.443,1.951-2.271-.027-4.388-.951-5.962-2.603-5.136-5.39-7.964-12.458-7.964-19.902,0-13.276,8.99-24.789,21.862-27.996,3.132-.779,6.498.155,8.784,2.44l4.802,4.803c.099.099.261.098.36,0,3.563-3.561,9.202-3.67,12.839-.244,5.765,5.432,9.071,13.085,9.071,20.998,0,14.847-11.127,27.186-25.884,28.7-.285.029-.569.043-.851.043Zm-11.595-17.459c2.217,0,4.302.863,5.87,2.432l5.994,5.994c9.98-1.192,17.466-9.607,17.466-19.71,0-5.523-2.217-10.654-6.242-14.447-.05-.047-.202-.044-.304.058h0c-3.608,3.608-9.479,3.608-13.087,0l-4.802-4.803c-.064-.063-.161-.09-.246-.072-8.854,2.207-15.038,10.128-15.038,19.264,0,4.91,1.789,9.583,5.05,13.229,1.493-1.259,3.364-1.944,5.339-1.944Z" stroke-width="0"/>
        <path d="m242.152,353.403c-7.445,0-14.512-2.828-19.902-7.964-1.651-1.573-2.575-3.69-2.603-5.962-.024-2.016.664-3.924,1.951-5.443l-5.75-5.749c-1.778-1.778-2.651-4.227-2.396-6.718,1.515-14.756,13.853-25.883,28.699-25.883,8.423,0,16.404,3.671,21.898,10.071,2.769,3.228,2.561,8.133-.472,11.167l-.853.853,5.36,5.359c2.01,2.009,2.853,4.842,2.257,7.578-2.865,13.147-14.721,22.69-28.189,22.69Zm-13.228-14.05c3.645,3.261,8.318,5.05,13.228,5.05,9.12,0,17.165-6.356,19.297-15.177l-5.613-5.613c-3.218-3.22-3.218-8.457,0-11.677l.883-.883c-3.756-4.057-9.023-6.369-14.566-6.369-10.103,0-18.517,7.485-19.709,17.467l5.994,5.992c1.568,1.568,2.431,3.653,2.431,5.871,0,1.976-.686,3.846-1.944,5.339Z" stroke-width="0"/>
      </g>
    </g>
  </g>
</svg>