<?xml version="1.0" encoding="UTF-8"?>
<svg id="_レイヤー_2" data-name="レイヤー_2" xmlns="http://www.w3.org/2000/svg" viewBox="0 0 240.83 53.08">
  <g id="_レイヤー_33" data-name="レイヤー_33">
    <g>
      <g>
        <path d="M3.95,44.7c-.58-.37-1.26-.76-2.03-1.17-.77-.41-1.41-.69-1.92-.86.74-.88,1.47-1.91,2.18-3.09.71-1.18,1.37-2.43,1.97-3.75.61-1.33,1.12-2.65,1.55-3.98.43-1.33.75-2.6.96-3.81l4.16,1.12c-.23,1.21-.59,2.53-1.08,3.95-.49,1.42-1.05,2.84-1.69,4.26-.64,1.42-1.32,2.76-2.03,4.03-.71,1.27-1.4,2.37-2.08,3.3ZM10.34,52.28c-.02-.4-.09-.87-.19-1.41-.1-.55-.22-1.09-.35-1.62-.13-.54-.26-.95-.4-1.26h3.63c.49,0,.84-.08,1.07-.24.22-.16.33-.48.33-.94v-25.35h4.44v27.07c0,2.51-1.5,3.77-4.51,3.77h-4.02ZM29.48,44.49c-.68-.84-1.37-1.89-2.1-3.16-.72-1.27-1.43-2.63-2.11-4.09-.69-1.45-1.31-2.9-1.87-4.35-.56-1.44-1.01-2.74-1.36-3.88l3.81-1.43c.33,1.14.77,2.38,1.34,3.72.57,1.34,1.21,2.67,1.92,4,.71,1.33,1.43,2.56,2.15,3.7.72,1.14,1.4,2.08,2.03,2.83-.42.21-.88.48-1.38.8-.5.33-.97.65-1.4.98-.43.33-.77.62-1.03.87Z"/>
        <path d="M55.98,52.56c-.28-.23-.63-.48-1.05-.73-.42-.26-.83-.49-1.24-.72-.41-.22-.75-.38-1.03-.47.49-.56,1.01-1.27,1.55-2.15.55-.87,1.05-1.77,1.52-2.69.47-.92.79-1.72.98-2.39l3.53,1.43c-.28.82-.66,1.71-1.14,2.67-.48.97-.98,1.89-1.52,2.78-.54.88-1.07,1.64-1.61,2.27ZM75.19,53.08c-.05-.54-.14-1.2-.28-1.99-.14-.79-.3-1.43-.49-1.92-.16.07-.3.13-.42.19-.12.06-.23.11-.35.16-.12-.44-.28-1-.49-1.68-.21-.67-.44-1.36-.7-2.06-.26-.7-.52-1.29-.8-1.78l2.51-.77h-15.89v-19.98h7.09c.16-.51.32-1.05.47-1.61.15-.56.27-1,.37-1.33l4.75.35c-.23.84-.5,1.7-.8,2.58h9.57v11.25h-17.01v1.47h22.49v2.76h-22.49v1.54h21.16c-.02.79-.06,1.68-.12,2.67-.06.99-.13,1.97-.23,2.95-.09.98-.23,1.87-.42,2.69-.35,1.68-.97,2.85-1.85,3.51-.89.66-2.22,1-4.02,1h-2.06ZM62.27,52.14c-.02-.68-.1-1.43-.23-2.27-.13-.84-.27-1.66-.44-2.48-.16-.81-.34-1.51-.52-2.1l3.39-.7c.19.58.38,1.29.58,2.13.2.84.38,1.68.54,2.53.16.85.28,1.6.35,2.25-.3,0-.7.03-1.19.1-.49.07-.96.15-1.41.24-.45.09-.81.19-1.07.28ZM62.72,27.62h12.61v-1.47h-12.61v1.47ZM62.72,31.78h12.61v-1.5h-12.61v1.5ZM68.03,50.81c-.07-.56-.19-1.21-.37-1.96-.17-.74-.37-1.5-.58-2.25-.21-.76-.43-1.4-.66-1.94l3.32-.87c.23.56.46,1.2.68,1.94.22.73.43,1.47.63,2.22.2.75.34,1.4.44,1.96-.28.02-.65.09-1.1.21-.45.12-.9.23-1.33.35-.43.12-.77.23-1.03.35ZM74.63,49.07h1.85c.86,0,1.44-.1,1.75-.31.3-.21.54-.67.7-1.4.09-.35.17-.81.23-1.38.06-.57.11-1.12.16-1.64.05-.52.07-.89.07-1.1h-4.4c.37.79.74,1.66,1.1,2.62.36.95.65,1.76.86,2.41-.26.09-.61.21-1.05.35-.44.14-.86.29-1.26.45Z"/>
        <path d="M126.11,52.25c-2.47,0-4.56-.12-6.29-.37-1.72-.24-3.16-.61-4.31-1.1-1.15-.49-2.1-1.09-2.85-1.82-.65.49-1.44,1.05-2.36,1.68-.92.63-1.75,1.15-2.5,1.57l-1.64-3.95c.4-.16.86-.37,1.4-.61.54-.24,1.07-.5,1.61-.77.54-.27.99-.52,1.36-.75v-8.45h-3.7v-3.67h7.44v10.02c1.07-1.4,1.85-3.03,2.34-4.91.49-1.87.73-4.11.73-6.72v-3.84h-3v-1.75c-.37.35-.77.73-1.19,1.14-.42.41-.75.77-.98,1.1-.42-.58-.93-1.18-1.52-1.8-.59-.62-1.22-1.21-1.87-1.78-.65-.57-1.28-1.05-1.89-1.45l2.76-2.79c.7.44,1.48,1.04,2.36,1.78.87.75,1.65,1.48,2.32,2.2v-.03h4.02v-4.12h3.84v4.12h3.6v2.06c.54-1,.98-2.05,1.34-3.16.36-1.11.62-2.16.79-3.16l3.49.56c-.21,1.07-.49,2.15-.84,3.25h7.72v3.39h-9.08c-.19.37-.38.73-.58,1.08-.2.35-.41.69-.65,1.01h8.7l1.19,1.15c-.33.49-.74,1.07-1.24,1.73-.5.66-1,1.3-1.48,1.9-.49.61-.89,1.09-1.19,1.47v.7h4.4v3.35h-4.4v3.98c0,1.14-.33,1.97-.98,2.48-.65.51-1.64.77-2.97.77h-1.78c-.05-.49-.15-1.1-.3-1.83-.15-.73-.32-1.31-.51-1.73h1.61c.44,0,.76-.07.96-.21.2-.14.3-.42.3-.84v-2.62h-3.95v-3.35h3.95v-1.99h.77c.23-.26.48-.56.75-.91.27-.35.48-.65.65-.91h-5.24v-2.03c-.09.16-.2.31-.33.45-.13.14-.25.28-.37.42-.3-.3-.74-.63-1.31-1-.57-.36-1.09-.62-1.55-.79.51-.58.98-1.2,1.4-1.85h-4.37v3.07h4.85c0,1.75-.03,3.42-.09,5.03-.06,1.61-.13,3.03-.23,4.28-.09,1.25-.21,2.21-.35,2.88-.28,1.33-.75,2.25-1.41,2.76-.66.51-1.66.77-2.99.77h-1.26c-.02-.28-.07-.65-.14-1.1-.07-.45-.15-.9-.24-1.33-.09-.43-.19-.76-.28-1h1.36c.74,0,1.2-.1,1.38-.31.17-.21.31-.61.4-1.19.09-.54.18-1.23.26-2.1.08-.86.15-1.78.21-2.74.06-.97.09-1.88.09-2.74h-1.68c-.19,2.47-.64,4.71-1.36,6.72-.72,2.01-1.69,3.74-2.9,5.19-.26-.26-.57-.52-.94-.8-.37-.28-.75-.54-1.12-.77v.17c.42,1.23,1.58,2.1,3.49,2.6,1.91.5,4.69.75,8.35.75,2.98,0,5.54-.05,7.68-.16,2.14-.1,3.88-.25,5.2-.44-.12.26-.24.64-.38,1.15-.14.51-.26,1.04-.35,1.57-.09.54-.15.98-.17,1.33-.65,0-1.5,0-2.55.02-1.05.01-2.16.02-3.34.03-1.18.01-2.3.02-3.37.02h-2.72Z"/>
        <path d="M163.55,50.4c-.16-.95-.29-2.12-.38-3.51-.09-1.38-.16-2.9-.19-4.54-.03-1.64-.03-3.34,0-5.08s.1-3.45.21-5.12c.1-1.66.24-3.21.42-4.63.17-1.42.38-2.63.61-3.63l4.09.84c-.26.84-.48,1.93-.66,3.27-.19,1.34-.34,2.81-.45,4.4-.12,1.6-.19,3.23-.23,4.91-.03,1.68-.03,3.31.02,4.89.05,1.58.13,3.02.24,4.3.12,1.28.27,2.32.45,3.11l-4.12.8ZM178.39,48.51c-4.03-.12-6.31-1.43-6.85-3.95-.14-.63-.19-1.33-.14-2.1.05-.77.22-1.62.52-2.55l3.67.91c-.16.44-.25.84-.26,1.19-.01.35.03.66.12.94.3.84,1.54,1.29,3.7,1.36,1.05.02,2.17-.02,3.37-.12,1.2-.1,2.37-.26,3.53-.47s2.16-.44,3.02-.7c-.05.33-.1.77-.16,1.33-.06.56-.1,1.12-.12,1.69-.02.57-.02,1.04,0,1.41-1.09.28-2.26.5-3.51.66-1.25.16-2.47.27-3.67.33-1.2.06-2.28.08-3.23.05ZM173.15,31.47l-.24-4.3c.88.12,1.97.19,3.25.21,1.28.02,2.61,0,4-.05,1.39-.06,2.71-.16,3.98-.31,1.27-.15,2.32-.34,3.16-.58l-.17,4.23c-.93.16-2.01.31-3.25.44-1.23.13-2.51.23-3.82.3-1.32.07-2.57.11-3.77.12-1.2.01-2.24,0-3.13-.05Z"/>
        <path d="M226.73,49.38c-1.56,0-2.95-.17-4.17-.51-1.22-.34-2.27-.95-3.14-1.83-.87-.88-1.59-2.12-2.15-3.7l3.7-2.03c.3,1.21.92,2.13,1.85,2.76.93.63,2.24.94,3.91.94,1.49,0,3.03-.07,4.61-.21,1.58-.14,3.07-.34,4.47-.59,1.4-.26,2.55-.55,3.46-.87,0,.37.03.86.09,1.47.06.61.14,1.2.24,1.78.1.58.2,1.04.3,1.36-.93.3-2.12.56-3.56.77-1.44.21-3,.37-4.66.49-1.66.12-3.31.17-4.94.17ZM221.24,28.85l-.03-4.23c.68.21,1.52.37,2.53.49,1.01.12,2.11.19,3.28.21,1.18.02,2.36,0,3.54-.05,1.19-.06,2.28-.15,3.28-.28,1-.13,1.83-.3,2.48-.51v4.26c-.58.19-1.37.34-2.37.45-1,.12-2.1.2-3.28.26-1.19.06-2.39.08-3.6.05-1.21-.02-2.33-.09-3.35-.21-1.02-.12-1.85-.27-2.48-.45Z"/>
      </g>
      <g>
        <path d="M7.16,14.73V2.56H2.83V.37h11.04v2.2h-4.31v12.17h-2.4Z"/>
        <path d="M20.38,14.73L25.86.37h2.09l5.48,14.36h-2.69l-1.11-3.16h-5.52l-1.11,3.16h-2.63ZM24.89,9.38h3.98l-1.97-5.6-2.01,5.6Z"/>
        <path d="M40.83,14.73V.37h2.36v6.24L48.57.37h2.98l-5.83,6.69,5.95,7.67h-3.04l-5.44-7.35v7.35h-2.36Z"/>
        <path d="M57.84,14.73L63.32.37h2.09l5.48,14.36h-2.69l-1.11-3.16h-5.52l-1.11,3.16h-2.63ZM62.36,9.38h3.98l-1.97-5.6-2.01,5.6Z"/>
        <path d="M78.3,14.73V.37h2.36l6.77,10.2V.37h2.4v14.36h-2.28l-6.89-10.49v10.49h-2.36Z"/>
        <path d="M97.22,14.73L102.7.37h2.09l5.48,14.36h-2.69l-1.11-3.16h-5.52l-1.11,3.16h-2.63ZM101.73,9.38h3.98l-1.97-5.6-2.01,5.6Z"/>
        <path d="M122.87,15.02c-1.2,0-2.31-.25-3.31-.76s-1.81-1.36-2.41-2.56l1.99-1.13c.41.68.91,1.22,1.5,1.61.59.39,1.36.58,2.32.58s1.63-.17,2.02-.52c.39-.35.58-.82.58-1.43,0-.38-.09-.71-.26-.98-.17-.27-.53-.53-1.07-.77-.54-.24-1.37-.48-2.49-.73-1.33-.31-2.31-.81-2.94-1.5-.64-.68-.95-1.55-.95-2.61,0-.83.2-1.57.61-2.21.4-.64.97-1.13,1.7-1.49.73-.36,1.59-.53,2.58-.53,1.3,0,2.39.28,3.28.85.89.57,1.57,1.23,2.03,2l-1.87,1.44c-.23-.33-.51-.65-.82-.95-.31-.31-.68-.56-1.11-.76-.42-.2-.94-.3-1.54-.3-.71,0-1.29.15-1.73.46-.44.31-.67.77-.67,1.39,0,.27.06.54.2.79.13.25.42.5.86.73.44.23,1.13.46,2.06.68,1.64.37,2.82.92,3.55,1.66s1.09,1.67,1.09,2.79c0,1.37-.48,2.42-1.43,3.15-.95.73-2.21,1.1-3.77,1.1Z"/>
        <path d="M136.23,14.73V.37h2.36v5.7h6.53V.37h2.4v14.36h-2.4v-6.46h-6.53v6.46h-2.36Z"/>
        <path d="M156.15,14.73V.37h2.36v14.36h-2.36Z"/>
        <path d="M178.66,14.73V.37h2.36l6.77,10.2V.37h2.4v14.36h-2.28l-6.89-10.49v10.49h-2.36Z"/>
        <path d="M198.83,14.73V.37h2.36v14.36h-2.36Z"/>
        <path d="M209.85,14.73V.37h2.36v6.24l5.38-6.24h2.98l-5.83,6.69,5.95,7.67h-3.04l-5.44-7.35v7.35h-2.36Z"/>
        <path d="M234.12,15.06c-1.3,0-2.46-.31-3.48-.92-1.02-.62-1.82-1.49-2.39-2.62s-.86-2.45-.86-3.97.29-2.86.86-3.99,1.37-2,2.39-2.63c1.02-.62,2.18-.93,3.48-.93s2.45.31,3.46.93c1.01.62,1.8,1.5,2.38,2.63.58,1.13.87,2.46.87,3.99s-.29,2.84-.87,3.97c-.58,1.13-1.37,2-2.38,2.62-1.01.62-2.16.92-3.46.92ZM234.12,12.76c.86,0,1.61-.22,2.24-.65.63-.43,1.12-1.04,1.47-1.83.35-.79.52-1.7.52-2.74s-.17-1.97-.52-2.76c-.35-.79-.84-1.4-1.47-1.83-.63-.43-1.37-.65-2.24-.65s-1.59.22-2.24.65c-.64.43-1.14,1.04-1.49,1.83-.35.79-.52,1.71-.52,2.76s.17,1.95.52,2.74c.35.79.84,1.4,1.49,1.83.64.43,1.39.65,2.24.65Z"/>
      </g>
    </g>
  </g>
</svg>